<svg width="453" height="540" viewBox="0 0 453 540" fill="none" xmlns="http://www.w3.org/2000/svg">
<path d="M354.137 86.872L175.209 0L452.343 42.0602L354.137 86.872Z" fill="#F0A500"/>
<path d="M336.653 404.093L354.137 86.8721L408.82 118.319L422.212 434.753L336.653 404.093Z" fill="#F0A500"/>
<path d="M451.971 42.0602L408.82 118.319L354.137 86.872L247.747 105.347L175.209 0L354.137 86.872L451.971 42.0602Z" fill="#996900"/>
<path d="M42.7792 246.465L147.681 318.793L50.963 314.076L42.7792 246.465Z" fill="#F0A500"/>
<path d="M50.963 314.076L14.8797 416.671L0 356.136L42.7792 246.465L50.963 314.076Z" fill="#936500"/>
<path d="M136.149 382.08L14.8797 416.671L50.963 314.076L147.681 318.793L136.149 382.08Z" fill="#CD8E03"/>
<path d="M336.653 404.093L247.747 105.347L354.137 86.8721L336.653 404.093Z" fill="#CD8D00"/>
<path d="M264.487 319.579L247.747 105.347L336.653 404.093L264.487 319.579Z" fill="#936500"/>
<path d="M201.62 404.093L264.487 319.579L336.653 404.093L206.084 467.773L201.62 404.093Z" fill="#A97400"/>
<path d="M206.084 467.773L201.62 404.093L136.149 382.08L14.8797 416.671L206.084 467.773Z" fill="#F0A500"/>
<path d="M280.483 539.314L422.212 434.753L336.653 404.093L206.084 467.773L280.483 539.314Z" fill="#CD8E03"/>
<path d="M206.084 467.773L113.458 526.342L280.483 539.314L206.084 467.773Z" fill="#A97400"/>
<path d="M206.084 467.773L113.458 526.342L14.8797 416.671L206.084 467.773Z" fill="#CD8D00"/>
</svg>
