<svg width="107" height="116" viewBox="0 0 107 116" fill="none" xmlns="http://www.w3.org/2000/svg">
<path fill-rule="evenodd" clip-rule="evenodd" d="M14.0542 1.60539C11.8542 2.66139 8.6142 5.04239 6.8552 6.89739C0.578202 13.5134 0.554199 13.7034 0.554199 56.8714C0.554199 83.3254 0.924198 97.2734 1.6952 99.8474C5.0392 111.006 18.5532 118.209 29.2072 114.511C33.7822 112.923 93.1732 79.9194 98.2012 76.1714C99.9312 74.8814 102.519 71.4744 103.951 68.6014C108.583 59.3064 106.921 48.2414 99.8422 41.2474C97.3202 38.7554 70.7032 22.7694 69.0752 22.7694C68.7892 22.7694 68.5542 32.9204 68.5542 45.3264C68.5542 58.6214 68.0952 69.7044 67.4372 72.3184C66.0092 77.9904 59.8502 85.0334 54.4182 87.2074C49.6332 89.1214 40.3952 89.4324 36.1732 87.8194C27.5632 84.5314 21.5792 75.8364 21.5632 66.5924C21.5552 61.5914 21.8802 60.6584 24.2882 58.7634C26.2942 57.1864 27.8222 56.7734 30.0252 57.2134C34.1872 58.0464 35.3862 59.5474 36.4542 65.2624C37.5302 71.0244 40.2802 73.7694 44.9762 73.7694C48.5552 73.7694 52.2362 70.9154 53.0732 67.4914C53.3722 66.2694 53.4902 53.6264 53.3352 39.3974L53.0542 13.5254L41.7422 7.02739C31.8552 1.34739 29.6512 0.476385 24.2422 0.107385C19.5462 -0.211615 17.0902 0.149386 14.0542 1.60539Z" fill="#F0A500"/>
<path fill-rule="evenodd" clip-rule="evenodd" d="M14.0542 1.60539C11.8542 2.66139 8.6142 5.04239 6.8552 6.89739C0.578202 13.5134 0.554199 13.7034 0.554199 56.8714C0.554199 83.3254 0.924198 97.2734 1.6952 99.8474C5.0392 111.006 18.5532 118.209 29.2072 114.511C33.7822 112.923 93.1732 79.9194 98.2012 76.1714C99.9312 74.8814 102.519 71.4744 103.951 68.6014C108.583 59.3064 106.921 48.2414 99.8422 41.2474C97.3202 38.7554 70.7032 22.7694 69.0752 22.7694C68.7892 22.7694 68.5542 32.9204 68.5542 45.3264C68.5542 58.6214 68.0952 69.7044 67.4372 72.3184C66.0092 77.9904 59.8502 85.0334 54.4182 87.2074C49.6332 89.1214 40.3952 89.4324 36.1732 87.8194C27.5632 84.5314 21.5792 75.8364 21.5632 66.5924C21.5552 61.5914 21.8802 60.6584 24.2882 58.7634C26.2942 57.1864 27.8222 56.7734 30.0252 57.2134C34.1872 58.0464 35.3862 59.5474 36.4542 65.2624C37.5302 71.0244 40.2802 73.7694 44.9762 73.7694C48.5552 73.7694 52.2362 70.9154 53.0732 67.4914C53.3722 66.2694 53.4902 53.6264 53.3352 39.3974L53.0542 13.5254L41.7422 7.02739C31.8552 1.34739 29.6512 0.476385 24.2422 0.107385C19.5462 -0.211615 17.0902 0.149386 14.0542 1.60539Z" fill="url(#paint0_radial_4_4)"/>
<defs>
<radialGradient id="paint0_radial_4_4" cx="0" cy="0" r="1" gradientUnits="userSpaceOnUse" gradientTransform="translate(103.5 54) rotate(-176.483) scale(89.6688 83.5568)">
<stop stop-color="#FF0000"/>
<stop offset="0.162764" stop-color="#FF0000"/>
<stop offset="1" stop-color="#FF0000" stop-opacity="0"/>
</radialGradient>
</defs>
</svg>
