<svg width="1080" height="1080" viewBox="0 0 1080 1080" fill="none" xmlns="http://www.w3.org/2000/svg">
<rect width="1080" height="1080" fill="white"/>
<path fill-rule="evenodd" clip-rule="evenodd" d="M661.054 541.605C658.854 542.661 655.614 545.042 653.855 546.897C647.578 553.513 647.554 553.703 647.554 596.871C647.554 623.325 647.924 637.273 648.695 639.847C652.039 651.006 665.553 658.209 676.207 654.511C680.782 652.923 740.173 619.919 745.201 616.171C746.931 614.881 749.519 611.474 750.951 608.601C755.583 599.306 753.921 588.241 746.842 581.247C744.32 578.755 717.703 562.769 716.075 562.769C715.789 562.769 715.554 572.92 715.554 585.326C715.554 598.621 715.095 609.704 714.437 612.318C713.009 617.99 706.85 625.033 701.418 627.207C696.633 629.121 687.395 629.432 683.173 627.819C674.563 624.531 668.579 615.836 668.563 606.592C668.555 601.591 668.88 600.658 671.288 598.763C673.294 597.186 674.822 596.773 677.025 597.213C681.187 598.046 682.386 599.547 683.454 605.262C684.53 611.024 687.28 613.769 691.976 613.769C695.555 613.769 699.236 610.915 700.073 607.491C700.372 606.269 700.49 593.626 700.335 579.397L700.054 553.525L688.742 547.027C678.855 541.347 676.651 540.476 671.242 540.107C666.546 539.788 664.09 540.149 661.054 541.605Z" fill="#F0A500"/>
<path fill-rule="evenodd" clip-rule="evenodd" d="M661.054 541.605C658.854 542.661 655.614 545.042 653.855 546.897C647.578 553.513 647.554 553.703 647.554 596.871C647.554 623.325 647.924 637.273 648.695 639.847C652.039 651.006 665.553 658.209 676.207 654.511C680.782 652.923 740.173 619.919 745.201 616.171C746.931 614.881 749.519 611.474 750.951 608.601C755.583 599.306 753.921 588.241 746.842 581.247C744.32 578.755 717.703 562.769 716.075 562.769C715.789 562.769 715.554 572.92 715.554 585.326C715.554 598.621 715.095 609.704 714.437 612.318C713.009 617.99 706.85 625.033 701.418 627.207C696.633 629.121 687.395 629.432 683.173 627.819C674.563 624.531 668.579 615.836 668.563 606.592C668.555 601.591 668.88 600.658 671.288 598.763C673.294 597.186 674.822 596.773 677.025 597.213C681.187 598.046 682.386 599.547 683.454 605.262C684.53 611.024 687.28 613.769 691.976 613.769C695.555 613.769 699.236 610.915 700.073 607.491C700.372 606.269 700.49 593.626 700.335 579.397L700.054 553.525L688.742 547.027C678.855 541.347 676.651 540.476 671.242 540.107C666.546 539.788 664.09 540.149 661.054 541.605Z" fill="url(#paint0_radial_2_2)"/>
<defs>
<radialGradient id="paint0_radial_2_2" cx="0" cy="0" r="1" gradientUnits="userSpaceOnUse" gradientTransform="translate(750.5 594) rotate(-176.483) scale(89.6688 83.5568)">
<stop stop-color="#FF0000"/>
<stop offset="0.162764" stop-color="#FF0000"/>
<stop offset="1" stop-color="#FF0000" stop-opacity="0"/>
</radialGradient>
</defs>
</svg>
