<svg width="888" height="1152" viewBox="0 0 888 1152" fill="none" xmlns="http://www.w3.org/2000/svg">
<g clip-path="url(#clip0_2_7)">
<path d="M124 659.706H283.86V705.021C283.86 754.531 295.189 794.392 317.846 824.601C341.343 853.972 382.042 868.657 439.944 868.657C472.671 868.657 499.524 863.622 520.503 853.552C541.483 842.643 557.847 828.378 569.594 810.755C582.182 793.133 590.574 773.412 594.769 751.594C599.804 729.777 602.322 707.538 602.322 684.881V282.084H365.678V126H763.441V692.434C763.441 735.231 757.147 776.769 744.559 817.049C731.972 857.329 712.251 892.993 685.399 924.042C659.384 955.091 625.819 979.846 584.699 998.308C544.42 1016.77 496.168 1026 439.944 1026C380.364 1026 330.434 1018.45 290.154 1003.34C249.874 987.398 217.147 965.58 191.972 937.888C167.636 910.196 150.014 877.469 139.105 839.706C129.035 801.104 124 758.728 124 712.573V659.706Z" fill="#F0A500"/>
</g>
<g clip-path="url(#clip1_2_7)">
<path d="M68 705.706H227.86V751.021C227.86 800.531 239.189 840.392 261.846 870.601C285.343 899.972 326.042 914.657 383.944 914.657C416.671 914.657 443.524 909.622 464.503 899.552C485.483 888.643 501.847 874.378 513.594 856.755C526.182 839.133 534.574 819.412 538.769 797.594C543.804 775.777 546.322 753.538 546.322 730.881V328.084H309.678V172H707.441V738.434C707.441 781.231 701.147 822.769 688.559 863.049C675.972 903.329 656.251 938.993 629.399 970.042C603.384 1001.09 569.819 1025.85 528.699 1044.31C488.42 1062.77 440.168 1072 383.944 1072C324.364 1072 274.434 1064.45 234.154 1049.34C193.874 1033.4 161.147 1011.58 135.972 983.888C111.636 956.196 94.014 923.469 83.1049 885.706C73.035 847.104 68 804.728 68 758.573V705.706Z" fill="black"/>
</g>
<defs>
<clipPath id="clip0_2_7">
<rect width="639.441" height="900" fill="white" transform="translate(124 126)"/>
</clipPath>
<clipPath id="clip1_2_7">
<rect width="639.441" height="900" fill="white" transform="translate(68 172)"/>
</clipPath>
</defs>
</svg>
