<svg width="1063" height="219" viewBox="0 0 1063 219" fill="none" xmlns="http://www.w3.org/2000/svg">
<g clip-path="url(#clip0_3_2)">
<path d="M12.32 60H86.72V72.64H25.6V107.2H81.92V119.84H25.6V159.2H86.72V172H12.32V60ZM105.601 60H118.881V159.2H175.201V172H105.601V60ZM208.894 153.12L243.614 60H257.694L215.934 172H202.174L160.414 60H174.174L208.894 153.12ZM296.473 72.64H265.433V60H340.953V72.64H309.753V172H296.473V72.64ZM473.438 138.56C473.438 134.613 472.424 131.467 470.398 129.12C468.371 126.773 465.704 124.907 462.398 123.52C459.091 122.027 455.304 120.853 451.038 120C446.771 119.147 442.451 118.347 438.078 117.6C433.704 116.747 429.384 115.787 425.118 114.72C420.851 113.547 417.064 111.947 413.758 109.92C410.451 107.787 407.784 105.067 405.758 101.76C403.731 98.4533 402.718 94.1867 402.718 88.96C402.718 83.3067 403.784 78.5067 405.918 74.56C408.158 70.6133 411.091 67.4133 414.718 64.96C418.451 62.4 422.664 60.5333 427.358 59.36C432.158 58.1867 437.171 57.6 442.398 57.6C449.864 57.6 456.104 58.56 461.118 60.48C466.131 62.4 470.131 64.8 473.118 67.68C476.104 70.4533 478.131 73.4933 479.198 76.8C480.371 80.1067 480.904 83.2 480.798 86.08H467.998C468.104 84.48 467.731 82.7733 466.878 80.96C466.024 79.04 464.584 77.3333 462.558 75.84C460.638 74.24 458.024 72.9067 454.718 71.84C451.411 70.7733 447.304 70.24 442.398 70.24C438.024 70.24 434.184 70.7733 430.878 71.84C427.678 72.8 424.958 74.1333 422.718 75.84C420.584 77.5467 418.984 79.52 417.918 81.76C416.851 84 416.318 86.3467 416.318 88.8C416.318 92.4267 417.331 95.3067 419.358 97.44C421.384 99.5733 424.051 101.28 427.358 102.56C430.664 103.84 434.451 104.853 438.718 105.6C442.984 106.347 447.304 107.147 451.678 108C456.158 108.853 460.531 109.92 464.798 111.2C469.064 112.373 472.851 114.133 476.158 116.48C479.464 118.72 482.131 121.707 484.158 125.44C486.184 129.173 487.198 133.867 487.198 139.52C487.198 145.067 486.078 150.027 483.837 154.4C481.704 158.667 478.664 162.293 474.718 165.28C470.771 168.267 466.078 170.507 460.638 172C455.198 173.6 449.278 174.4 442.878 174.4C437.758 174.4 432.744 173.707 427.838 172.32C422.931 171.04 418.504 169.067 414.557 166.4C410.718 163.627 407.624 160.107 405.278 155.84C402.931 151.573 401.758 146.56 401.758 140.8H415.038C414.824 144.107 415.358 147.04 416.638 149.6C418.024 152.16 419.944 154.347 422.398 156.16C424.958 157.867 427.998 159.2 431.518 160.16C435.038 161.12 438.931 161.6 443.198 161.6C447.038 161.6 450.771 161.173 454.398 160.32C458.131 159.36 461.384 157.973 464.158 156.16C466.931 154.24 469.171 151.84 470.878 148.96C472.584 146.08 473.438 142.613 473.438 138.56ZM521.16 72.64H490.12V60H565.64V72.64H534.44V172H521.16V72.64ZM579.02 60H592.3V130.08C592.3 134.773 592.993 139.04 594.38 142.88C595.767 146.72 597.793 150.027 600.46 152.8C603.233 155.573 606.593 157.76 610.54 159.36C614.593 160.853 619.287 161.6 624.62 161.6C635.18 161.6 643.18 158.72 648.62 152.96C654.06 147.2 656.78 139.573 656.78 130.08V60H670.06V131.04C670.06 136.8 669.1 142.347 667.18 147.68C665.367 152.907 662.593 157.493 658.86 161.44C655.127 165.387 650.38 168.533 644.62 170.88C638.967 173.227 632.3 174.4 624.62 174.4C616.94 174.4 610.22 173.227 604.46 170.88C598.7 168.533 593.953 165.387 590.22 161.44C586.487 157.493 583.66 152.907 581.74 147.68C579.927 142.347 579.02 136.8 579.02 131.04V60ZM692.633 60H728.153C736.259 60 743.459 61.3333 749.753 64C756.153 66.56 761.486 70.2933 765.753 75.2C770.126 80 773.433 85.8667 775.673 92.8C777.913 99.6267 779.033 107.253 779.033 115.68C779.033 124.213 777.913 131.947 775.673 138.88C773.433 145.813 770.126 151.733 765.753 156.64C761.486 161.547 756.153 165.333 749.753 168C743.459 170.667 736.259 172 728.153 172H692.633V60ZM727.673 159.2C732.686 159.2 737.433 158.453 741.913 156.96C746.499 155.36 750.499 152.853 753.913 149.44C757.433 145.92 760.206 141.387 762.233 135.84C764.366 130.293 765.433 123.573 765.433 115.68C765.433 107.893 764.366 101.28 762.233 95.84C760.206 90.2933 757.433 85.8133 753.913 82.4C750.499 78.9867 746.499 76.5333 741.913 75.04C737.433 73.44 732.686 72.64 727.673 72.64H705.913V159.2H727.673ZM797.008 60H810.288V172H797.008V60ZM828.045 115.68C828.045 106.933 829.378 98.9867 832.045 91.84C834.712 84.6933 838.445 78.6133 843.245 73.6C848.152 68.48 853.965 64.5333 860.685 61.76C867.512 58.9867 874.978 57.6 883.085 57.6C891.298 57.6 898.818 58.9867 905.645 61.76C912.472 64.5333 918.338 68.48 923.245 73.6C928.152 78.6133 931.938 84.6933 934.605 91.84C937.378 98.9867 938.765 106.933 938.765 115.68C938.765 124.533 937.378 132.587 934.605 139.84C931.938 147.093 928.152 153.28 923.245 158.4C918.338 163.52 912.472 167.467 905.645 170.24C898.818 173.013 891.298 174.4 883.085 174.4C874.978 174.4 867.512 173.013 860.685 170.24C853.965 167.467 848.152 163.52 843.245 158.4C838.445 153.28 834.712 147.093 832.045 139.84C829.378 132.587 828.045 124.533 828.045 115.68ZM841.645 115.68C841.645 122.613 842.605 128.907 844.525 134.56C846.552 140.213 849.378 145.067 853.005 149.12C856.632 153.067 861.005 156.16 866.125 158.4C871.245 160.533 876.898 161.6 883.085 161.6C889.485 161.6 895.245 160.533 900.365 158.4C905.485 156.16 909.858 153.067 913.485 149.12C917.218 145.067 920.045 140.213 921.965 134.56C923.992 128.907 925.005 122.613 925.005 115.68C925.005 108.853 923.992 102.667 921.965 97.12C920.045 91.5733 917.218 86.8267 913.485 82.88C909.858 78.8267 905.485 75.7333 900.365 73.6C895.245 71.36 889.485 70.24 883.085 70.24C876.898 70.24 871.245 71.36 866.125 73.6C861.005 75.7333 856.632 78.8267 853.005 82.88C849.378 86.8267 846.552 91.5733 844.525 97.12C842.605 102.667 841.645 108.853 841.645 115.68ZM1025 138.56C1025 134.613 1023.99 131.467 1021.96 129.12C1019.93 126.773 1017.27 124.907 1013.96 123.52C1010.65 122.027 1006.87 120.853 1002.6 120C998.333 119.147 994.013 118.347 989.64 117.6C985.267 116.747 980.947 115.787 976.68 114.72C972.413 113.547 968.627 111.947 965.32 109.92C962.013 107.787 959.347 105.067 957.32 101.76C955.293 98.4533 954.28 94.1867 954.28 88.96C954.28 83.3067 955.347 78.5067 957.48 74.56C959.72 70.6133 962.653 67.4133 966.28 64.96C970.013 62.4 974.227 60.5333 978.92 59.36C983.72 58.1867 988.733 57.6 993.96 57.6C1001.43 57.6 1007.67 58.56 1012.68 60.48C1017.69 62.4 1021.69 64.8 1024.68 67.68C1027.67 70.4533 1029.69 73.4933 1030.76 76.8C1031.93 80.1067 1032.47 83.2 1032.36 86.08H1019.56C1019.67 84.48 1019.29 82.7733 1018.44 80.96C1017.59 79.04 1016.15 77.3333 1014.12 75.84C1012.2 74.24 1009.59 72.9067 1006.28 71.84C1002.97 70.7733 998.867 70.24 993.96 70.24C989.587 70.24 985.747 70.7733 982.44 71.84C979.24 72.8 976.52 74.1333 974.28 75.84C972.147 77.5467 970.547 79.52 969.48 81.76C968.413 84 967.88 86.3467 967.88 88.8C967.88 92.4267 968.893 95.3067 970.92 97.44C972.947 99.5733 975.613 101.28 978.92 102.56C982.227 103.84 986.013 104.853 990.28 105.6C994.547 106.347 998.867 107.147 1003.24 108C1007.72 108.853 1012.09 109.92 1016.36 111.2C1020.63 112.373 1024.41 114.133 1027.72 116.48C1031.03 118.72 1033.69 121.707 1035.72 125.44C1037.75 129.173 1038.76 133.867 1038.76 139.52C1038.76 145.067 1037.64 150.027 1035.4 154.4C1033.27 158.667 1030.23 162.293 1026.28 165.28C1022.33 168.267 1017.64 170.507 1012.2 172C1006.76 173.6 1000.84 174.4 994.44 174.4C989.32 174.4 984.307 173.707 979.4 172.32C974.493 171.04 970.067 169.067 966.12 166.4C962.28 163.627 959.187 160.107 956.84 155.84C954.493 151.573 953.32 146.56 953.32 140.8H966.6C966.387 144.107 966.92 147.04 968.2 149.6C969.587 152.16 971.507 154.347 973.96 156.16C976.52 157.867 979.56 159.2 983.08 160.16C986.6 161.12 990.493 161.6 994.76 161.6C998.6 161.6 1002.33 161.173 1005.96 160.32C1009.69 159.36 1012.95 157.973 1015.72 156.16C1018.49 154.24 1020.73 151.84 1022.44 148.96C1024.15 146.08 1025 142.613 1025 138.56Z" fill="black"/>
</g>
<defs>
<clipPath id="clip0_3_2">
<rect width="1063" height="219" fill="white"/>
</clipPath>
</defs>
</svg>
